<svg width="241" height="41" viewBox="0 0 241 41" fill="none" xmlns="http://www.w3.org/2000/svg">
<path d="M51.5765 14.4996C52.5381 12.755 53.8758 11.399 55.5935 10.4238C57.3112 9.45245 59.2577 8.96289 61.4369 8.96289C64.1046 8.96289 66.3884 9.67004 68.2883 11.0804C70.1883 12.4908 71.4562 14.418 72.0999 16.8541H66.0821C65.6323 15.9138 65.0003 15.195 64.1782 14.7055C63.3562 14.212 62.4217 13.9673 61.3748 13.9673C59.6881 13.9673 58.3232 14.5578 57.2763 15.7312C56.2294 16.9085 55.706 18.4782 55.706 20.4481C55.706 22.418 56.2294 23.9877 57.2763 25.1649C58.3232 26.3422 59.6881 26.9289 61.3748 26.9289C62.4217 26.9289 63.3523 26.6841 64.1782 26.1907C65.0003 25.6972 65.6362 24.9823 66.0821 24.0421H72.0999C71.4601 26.4821 70.1883 28.4015 68.2883 29.8002C66.3884 31.2028 64.1046 31.9022 61.4369 31.9022C59.2577 31.9022 57.3112 31.4165 55.5935 30.4413C53.8758 29.4699 52.5342 28.114 51.5765 26.3811C50.6148 24.6482 50.134 22.6705 50.134 20.4442C50.1379 18.2256 50.6187 16.2441 51.5765 14.4996Z" fill="white"/>
<path d="M78.8737 30.8778C77.4739 30.128 76.3766 29.0595 75.5739 27.6685C74.7713 26.2775 74.3719 24.6534 74.3719 22.7923C74.3719 20.9545 74.7752 19.3344 75.5894 17.9317C76.3998 16.533 77.5088 15.4567 78.9202 14.7068C80.3277 13.957 81.9097 13.584 83.6585 13.584C85.4072 13.584 86.9892 13.957 88.3967 14.7068C89.8043 15.4567 90.9171 16.5291 91.7275 17.9317C92.5379 19.3344 92.945 20.9545 92.945 22.7923C92.945 24.634 92.534 26.2542 91.712 27.6529C90.8899 29.0556 89.7694 30.128 88.3502 30.8778C86.9311 31.6277 85.3452 32.0007 83.5964 32.0007C81.8438 32.0007 80.2696 31.6277 78.8737 30.8778ZM86.268 26.0988C87.0047 25.3295 87.3731 24.226 87.3731 22.7962C87.3731 21.3625 87.0164 20.2629 86.299 19.4936C85.5856 18.7243 84.7015 18.3397 83.6585 18.3397C82.5922 18.3397 81.7042 18.7205 81.0024 19.4781C80.2967 20.2358 79.9439 21.3431 79.9439 22.8001C79.9439 24.2338 80.2889 25.3334 80.983 26.1027C81.6771 26.872 82.5456 27.2566 83.5925 27.2566C84.6395 27.2528 85.5313 26.8681 86.268 26.0988Z" fill="white"/>
<path d="M95.8106 17.9155C96.5047 16.5245 97.4469 15.456 98.645 14.7062C99.8393 13.9563 101.173 13.5833 102.647 13.5833C103.821 13.5833 104.892 13.8281 105.865 14.3215C106.834 14.8149 107.598 15.4755 108.153 16.3108V8H113.628V31.7397H108.153V29.1715C107.641 30.0262 106.908 30.7101 105.958 31.2229C105.008 31.7358 103.903 31.9922 102.643 31.9922C101.169 31.9922 99.8354 31.6115 98.6412 30.8538C97.4469 30.0962 96.5008 29.016 95.8067 27.6134C95.1127 26.2147 94.7676 24.5945 94.7676 22.7528C94.7715 20.9228 95.1166 19.3065 95.8106 17.9155ZM107.017 19.5512C106.257 18.7586 105.338 18.3623 104.248 18.3623C103.158 18.3623 102.236 18.7547 101.479 19.5318C100.719 20.3128 100.343 21.389 100.343 22.7567C100.343 24.1243 100.723 25.2122 101.479 26.0126C102.236 26.813 103.158 27.2171 104.248 27.2171C105.338 27.2171 106.26 26.8208 107.017 26.0282C107.773 25.2355 108.153 24.1554 108.153 22.7878C108.153 21.424 107.773 20.3439 107.017 19.5512Z" fill="white"/>
<path d="M134.345 24.1095H121.953C122.038 25.2207 122.395 26.0716 123.027 26.6583C123.655 27.245 124.43 27.5403 125.349 27.5403C126.714 27.5403 127.664 26.9613 128.199 25.8074H134.027C133.728 26.9846 133.19 28.0415 132.41 28.9817C131.631 29.922 130.654 30.6602 129.483 31.1964C128.308 31.7326 126.997 31.9968 125.543 31.9968C123.794 31.9968 122.236 31.6238 120.867 30.8739C119.502 30.124 118.432 29.0556 117.664 27.6646C116.896 26.2736 116.513 24.6495 116.513 22.7884C116.513 20.9273 116.893 19.3032 117.649 17.9123C118.405 16.5213 119.467 15.4528 120.836 14.703C122.201 13.9531 123.771 13.5801 125.543 13.5801C127.272 13.5801 128.808 13.9453 130.153 14.6719C131.499 15.3984 132.55 16.4358 133.306 17.7841C134.062 19.1323 134.442 20.702 134.442 22.5009C134.438 23.0177 134.407 23.5538 134.345 24.1095ZM128.835 21.0594C128.835 20.1192 128.513 19.3693 127.874 18.8137C127.234 18.2581 126.431 17.9783 125.473 17.9783C124.554 17.9783 123.783 18.2464 123.151 18.7787C122.523 19.3149 122.131 20.0726 121.984 21.0556H128.835V21.0594Z" fill="white"/>
<path d="M162.774 9.2207V31.7443H157.3V18.2387L152.274 31.7443H147.854L142.794 18.2037V31.7443H137.319V9.2207H143.787L150.095 24.8128L156.338 9.2207H162.774Z" fill="white"/>
<path d="M166.664 17.9162C167.358 16.5252 168.3 15.4567 169.498 14.7068C170.693 13.957 172.026 13.584 173.5 13.584C174.76 13.584 175.865 13.8404 176.815 14.3533C177.765 14.8662 178.494 15.5422 179.01 16.3737V13.8404H184.485V31.7443H179.01V29.211C178.475 30.0463 177.734 30.7185 176.784 31.2314C175.834 31.7443 174.729 32.0007 173.469 32.0007C172.019 32.0007 170.693 31.6199 169.498 30.8623C168.304 30.1046 167.358 29.0245 166.664 27.6219C165.97 26.2231 165.625 24.6029 165.625 22.7613C165.625 20.9235 165.97 19.3071 166.664 17.9162ZM177.87 19.5519C177.11 18.7593 176.191 18.363 175.101 18.363C174.012 18.363 173.089 18.7554 172.333 19.5325C171.573 20.3135 171.197 21.3897 171.197 22.7574C171.197 24.125 171.577 25.2129 172.333 26.0133C173.089 26.8137 174.012 27.2178 175.101 27.2178C176.191 27.2178 177.114 26.8215 177.87 26.0289C178.626 25.2362 179.006 24.1561 179.006 22.7885C179.01 21.4247 178.63 20.3445 177.87 19.5519Z" fill="white"/>
<path d="M216.547 15.6688C217.862 17.0171 218.517 18.8898 218.517 21.2832V31.7427H213.073V22.0214C213.073 20.8675 212.767 19.9738 212.162 19.3444C211.553 18.715 210.716 18.3964 209.649 18.3964C208.583 18.3964 207.745 18.7111 207.137 19.3444C206.528 19.9738 206.226 20.8675 206.226 22.0214V31.7427H200.782V22.0214C200.782 20.8675 200.479 19.9738 199.87 19.3444C199.262 18.715 198.424 18.3964 197.358 18.3964C196.291 18.3964 195.454 18.7111 194.845 19.3444C194.236 19.9738 193.934 20.8675 193.934 22.0214V31.7427H188.459V13.8388H193.934V16.0846C194.488 15.3347 195.214 14.7441 196.113 14.3051C197.009 13.866 198.025 13.6484 199.153 13.6484C200.498 13.6484 201.697 13.9359 202.755 14.5149C203.814 15.0938 204.64 15.9175 205.237 16.986C205.857 16.003 206.699 15.1987 207.765 14.5809C208.831 13.9593 209.994 13.6484 211.255 13.6484C213.469 13.6484 215.237 14.3206 216.547 15.6688Z" fill="white"/>
<path d="M222.313 17.9162C223.007 16.5252 223.95 15.4567 225.148 14.7068C226.342 13.957 227.676 13.584 229.149 13.584C230.409 13.584 231.515 13.8404 232.465 14.3533C233.414 14.8662 234.143 15.5422 234.659 16.3737V13.8404H240.134V31.7443H234.659V29.211C234.124 30.0463 233.383 30.7185 232.433 31.2314C231.484 31.7443 230.378 32.0007 229.118 32.0007C227.668 32.0007 226.342 31.6199 225.148 30.8623C223.953 30.1046 223.007 29.0245 222.313 27.6219C221.619 26.2231 221.274 24.6029 221.274 22.7613C221.27 20.9235 221.619 19.3071 222.313 17.9162ZM233.519 19.5519C232.759 18.7593 231.84 18.363 230.751 18.363C229.661 18.363 228.738 18.7554 227.982 19.5325C227.222 20.3135 226.846 21.3897 226.846 22.7574C226.846 24.125 227.226 25.2129 227.982 26.0133C228.738 26.8137 229.661 27.2178 230.751 27.2178C231.84 27.2178 232.763 26.8215 233.519 26.0289C234.275 25.2362 234.655 24.1561 234.655 22.7885C234.655 21.4247 234.275 20.3445 233.519 19.5519Z" fill="white"/>
<path d="M35.7753 24.3396C35.7684 24.4602 35.758 24.5774 35.7477 24.6946L35.7546 24.3396L35.789 22.1855C35.7994 22.3854 35.8097 22.5853 35.8132 22.7852C35.8201 23.3056 35.8097 23.8261 35.7753 24.3396Z" fill="white"/>
<path d="M35.7477 24.6934V24.7416H35.7443C35.7443 24.7244 35.7443 24.7106 35.7477 24.6934Z" fill="white"/>
<path d="M33.9778 18.2217L33.919 21.9266C33.8254 21.8577 33.7319 21.7853 33.6419 21.706C33.6765 22.0783 33.6973 22.4505 33.7042 22.8296C33.7111 23.2121 33.7042 23.5912 33.6869 23.9669C34.0055 24.1289 34.2965 24.2461 34.5251 24.3253L35.7442 24.7424C35.7442 24.7251 35.7477 24.7113 35.7477 24.6941L35.7892 22.1851C35.6957 20.4688 35.3563 18.8007 34.7918 17.2188L33.9778 18.2217Z" fill="white"/>
<path d="M35.7441 24.7426C35.7303 24.9081 35.7129 25.0735 35.6921 25.2355C35.6575 25.5353 35.6125 25.8351 35.5605 26.1315C34.9856 29.4884 33.4409 32.5971 31.058 35.113C27.8751 38.4767 23.5769 40.3792 18.9635 40.4757C14.3467 40.5687 9.97923 38.842 6.65775 35.6093C4.18829 33.2071 2.52235 30.188 1.80194 26.8829C1.7396 26.5899 1.68073 26.2935 1.63224 25.9937C1.58375 25.7007 1.54218 25.4009 1.51101 25.1045C1.44867 24.5703 1.41404 24.0292 1.40365 23.4847C1.37594 22.1061 1.50755 20.7447 1.78809 19.4316L2.50503 20.1175L2.33532 24.9494L3.10075 24.9563H3.11114H3.30163C3.36744 24.9563 3.47481 24.9563 3.61681 24.946C3.62028 24.977 3.62374 25.008 3.6272 25.0425C3.63413 25.1011 3.64105 25.1631 3.65144 25.2217C3.6653 25.332 3.68262 25.4457 3.69993 25.556C3.70686 25.6042 3.71379 25.6491 3.72072 25.6973C3.73457 25.7766 3.74842 25.8558 3.76228 25.9351C3.77613 26.0109 3.78998 26.0833 3.80384 26.1591C3.8073 26.1695 3.8073 26.1798 3.81077 26.1901C3.82462 26.2522 3.83501 26.3177 3.84887 26.3797C3.86618 26.459 3.8835 26.5382 3.90082 26.6175C3.91467 26.6864 3.93199 26.7554 3.9493 26.8243C3.95969 26.8725 3.97355 26.9173 3.98394 26.9621C4.03589 27.1655 4.09131 27.3654 4.15019 27.5653C4.1675 27.6204 4.18482 27.679 4.20214 27.7341C4.33029 28.1546 4.47576 28.5647 4.63854 28.968C4.65586 29.0162 4.67664 29.0645 4.69742 29.1093C4.83942 29.4539 4.99528 29.7951 5.16152 30.126C5.18577 30.1742 5.21001 30.2225 5.23426 30.2673C5.30699 30.4086 5.37972 30.5464 5.45938 30.6843C5.51134 30.7774 5.56329 30.867 5.61524 30.96C6.26984 32.0836 7.05951 33.1175 7.96002 34.0343C7.99812 34.0756 8.03968 34.1135 8.08124 34.1549C8.10549 34.1825 8.13319 34.2066 8.1609 34.2341C8.54881 34.6167 8.95404 34.9751 9.38005 35.3094C9.45971 35.3715 9.53591 35.4335 9.61557 35.4921C9.66059 35.5266 9.70562 35.561 9.75064 35.592C9.97923 35.7609 10.2113 35.9264 10.4468 36.0815C10.4849 36.1056 10.523 36.1331 10.5611 36.1573C10.9975 36.4399 11.4512 36.7018 11.9153 36.9362C12.0158 36.9879 12.1197 37.0396 12.2201 37.0878C12.2686 37.1119 12.3171 37.1361 12.369 37.1602C12.5388 37.2394 12.7119 37.3153 12.8886 37.3911C12.9648 37.4221 13.0375 37.4531 13.1137 37.4841C13.2695 37.5462 13.4289 37.6082 13.5882 37.6668C13.6367 37.684 13.6852 37.7013 13.7371 37.7185C13.8376 37.753 13.9345 37.7874 14.035 37.8185C14.0835 37.8357 14.1354 37.8495 14.1839 37.8667C14.3571 37.9219 14.5303 37.9735 14.7069 38.0218C14.7866 38.0459 14.8662 38.0666 14.9459 38.0838C15.0983 38.1218 15.2541 38.1596 15.41 38.1941C15.4515 38.2045 15.4896 38.2114 15.5312 38.2217C15.6247 38.2424 15.7182 38.2596 15.8117 38.2768C15.8637 38.2872 15.9156 38.2975 15.9641 38.3044C16.0473 38.3216 16.1304 38.3354 16.21 38.3492C16.2585 38.3561 16.307 38.3664 16.3555 38.3733C16.4282 38.3837 16.5044 38.3975 16.5772 38.4044C16.6464 38.4147 16.7157 38.425 16.785 38.4319C16.9616 38.4526 17.1417 38.4733 17.3218 38.4871C17.3703 38.4905 17.4153 38.494 17.4638 38.4974C17.5539 38.5043 17.6439 38.5112 17.734 38.5147C17.7755 38.5181 17.8171 38.5215 17.8621 38.5215C17.9002 38.525 17.9349 38.525 17.973 38.5284C18.0284 38.5319 18.0803 38.5319 18.1357 38.5353C18.399 38.5457 18.6657 38.5457 18.9323 38.5422C19.0397 38.5388 19.1471 38.5353 19.2579 38.5319C19.2822 38.5319 19.3064 38.5284 19.3306 38.5284C19.3826 38.5284 19.4311 38.525 19.483 38.5215C19.6701 38.5112 19.8571 38.4974 20.0407 38.4802C20.103 38.4733 20.1619 38.4698 20.2242 38.4629C20.3108 38.4561 20.3939 38.4457 20.4805 38.4319C20.5186 38.4285 20.5602 38.4216 20.5983 38.4181C20.6572 38.4112 20.7126 38.4009 20.7715 38.394C20.8788 38.3802 20.9827 38.363 21.0866 38.3458C21.1594 38.332 21.2321 38.3216 21.3083 38.3079C21.3672 38.2975 21.4261 38.2872 21.4849 38.2734C21.5438 38.2631 21.6027 38.2493 21.6616 38.2389C21.6962 38.232 21.7308 38.2251 21.7655 38.2148C21.807 38.2079 21.8451 38.1976 21.8867 38.1872C22.098 38.139 22.3092 38.0873 22.517 38.0321C22.5621 38.0218 22.6036 38.008 22.6487 37.9942C22.7249 37.9736 22.8011 37.9529 22.8773 37.9288C22.9327 37.9115 22.9915 37.8943 23.047 37.877C23.5007 37.7357 23.944 37.5738 24.3769 37.3911C24.4324 37.367 24.4843 37.3463 24.5397 37.3222C24.5951 37.298 24.6471 37.2739 24.7025 37.2498C24.751 37.2291 24.796 37.2084 24.841 37.1878C25.0073 37.1119 25.1735 37.0292 25.3363 36.9465C25.3883 36.9189 25.4402 36.8948 25.4922 36.8672C25.5961 36.8121 25.7 36.757 25.8004 36.7018C25.8524 36.6742 25.9043 36.6467 25.9528 36.6157C26.029 36.5709 26.1087 36.526 26.1849 36.4812C26.2264 36.4571 26.268 36.433 26.3096 36.4089C26.5416 36.2676 26.7702 36.1228 26.9953 35.9677C27.0438 35.9367 27.0923 35.9022 27.1373 35.8678C27.1754 35.8436 27.2101 35.8161 27.2482 35.7919C27.2863 35.7678 27.3209 35.7403 27.3555 35.7127C27.404 35.6782 27.4525 35.6403 27.501 35.6058C27.5426 35.5748 27.5841 35.5438 27.6292 35.5093C27.6707 35.4783 27.7123 35.4473 27.7538 35.4128C28.0863 35.1544 28.4084 34.8821 28.7201 34.596C28.7548 34.565 28.7894 34.5305 28.8241 34.4995C28.9487 34.3823 29.07 34.2652 29.1877 34.148C29.2951 34.0411 29.4025 33.9309 29.5064 33.8206C29.541 33.7827 29.5791 33.7448 29.6137 33.7034C29.6345 33.6793 29.6553 33.6586 29.6761 33.6345C29.7384 33.5655 29.8008 33.4966 29.8631 33.4242C29.9012 33.3794 29.9393 33.3381 29.9774 33.2933C30.0709 33.183 30.1644 33.0727 30.2545 32.959C30.2822 32.9279 30.3064 32.8935 30.3341 32.8625C30.5004 32.6557 30.6597 32.4454 30.8121 32.2283C30.8433 32.187 30.8744 32.1421 30.9056 32.0973C30.968 32.0112 31.0268 31.9216 31.0857 31.8354C31.1134 31.7941 31.1411 31.7527 31.1688 31.7113C31.3766 31.3977 31.5706 31.0772 31.7542 30.7463C31.7784 30.6981 31.8061 30.6533 31.8304 30.605C31.9066 30.4637 31.9828 30.3224 32.052 30.1811C32.0763 30.1329 32.1005 30.0846 32.1248 30.0364C32.1559 29.9709 32.1871 29.9054 32.2183 29.8434C32.2529 29.7676 32.2875 29.6952 32.3222 29.6194C32.3707 29.516 32.4157 29.4126 32.4607 29.3092C32.4815 29.2609 32.5023 29.2092 32.5231 29.161C32.5438 29.1127 32.5646 29.061 32.5854 29.0128C32.6062 28.9645 32.627 28.9128 32.6443 28.8611C32.6651 28.8129 32.6824 28.7612 32.7032 28.7095C32.7205 28.6578 32.7413 28.6096 32.7586 28.5579C32.814 28.4062 32.8694 28.2546 32.9179 28.0995C32.9352 28.0512 32.9491 28.003 32.9664 27.9547C32.9698 27.9444 32.9733 27.9306 32.9768 27.9202C33.0391 27.7204 33.098 27.5205 33.1569 27.3206C33.1846 27.2137 33.2123 27.1103 33.24 27.0035C33.2677 26.8967 33.292 26.7898 33.3162 26.6864C33.3404 26.5796 33.3647 26.4728 33.3855 26.3659C33.3959 26.3108 33.4062 26.2591 33.4166 26.2039C33.4305 26.1315 33.4443 26.0626 33.4582 25.9902C33.4582 25.9868 33.4582 25.9833 33.4582 25.9799C33.4721 25.9041 33.4859 25.8317 33.4963 25.7559C33.5101 25.6801 33.5205 25.6042 33.5309 25.5319C33.5413 25.456 33.5552 25.3802 33.5621 25.3044C33.6037 25.008 33.6348 24.7082 33.6591 24.4083C33.6695 24.2636 33.6799 24.1188 33.6868 23.9706C34.0054 24.1326 34.2964 24.2498 34.525 24.3291L34.667 24.3773L35.7441 24.7426Z" fill="white"/>
<path d="M37.3443 13.5582L35.668 12.1176L35.9935 9.96007C36.1667 8.81585 35.4463 7.7509 34.3172 7.48207L32.4365 7.03404C32.1179 6.95822 31.8755 6.70317 31.82 6.38265C31.536 4.74904 30.1195 3.58758 28.4535 3.62204H28.4293C27.9098 3.63238 27.2032 3.20502 26.9712 2.73975C26.2715 1.31982 24.5814 0.706359 23.1267 1.35085L22.4894 1.63346C22.0842 1.81267 21.6028 1.72306 21.291 1.40943L21.2356 1.3543C20.1585 0.268664 18.451 0.182493 17.2665 1.15095L16.5149 1.76442C16.2205 2.00568 15.8153 2.07114 15.4585 1.94017L14.5199 1.59553C13.1345 1.08546 11.5725 1.6817 10.8867 2.98446L10.5231 3.67375C10.3118 4.07009 9.87193 4.29756 9.42514 4.23552L9.11343 4.19417C8.31336 4.08388 7.52023 4.29756 6.88641 4.79385C6.25259 5.29013 5.85775 6.007 5.77463 6.80658L5.67072 7.82672L4.98149 7.81984C4.16411 7.8095 3.37443 8.14379 2.80988 8.73314C2.24534 9.32248 1.95094 10.1255 2.00289 10.9354L2.11373 12.7276L1.10238 13.8132C-0.244913 15.2642 -0.179106 17.5561 1.25478 18.9277L1.78123 19.4309C1.93016 18.7278 2.12411 18.0385 2.35963 17.363C1.85396 16.6875 1.88513 15.7191 2.47739 15.0849L4.03249 13.4134L3.87317 10.8251C3.85585 10.5253 3.95976 10.2392 4.16757 10.0221C4.36845 9.81187 4.63514 9.6947 4.92261 9.69126C4.933 9.69126 4.94685 9.69126 4.95724 9.69126L7.3609 9.71881L7.63452 6.99958C7.66569 6.70663 7.80769 6.44815 8.03975 6.26549C8.2718 6.08282 8.55927 6.007 8.8502 6.04491L9.16191 6.08626C10.388 6.25514 11.6002 5.63479 12.1751 4.54226L12.5388 3.85297C12.7882 3.37736 13.3597 3.16022 13.8619 3.34633L14.8005 3.69098C15.7806 4.05285 16.889 3.86676 17.6959 3.20504L18.4475 2.59156C18.8805 2.24002 19.5004 2.27105 19.8953 2.66394L19.9507 2.71908C20.8062 3.58069 22.1292 3.82885 23.2444 3.336L23.8817 3.05339C24.4116 2.81903 25.0281 3.04304 25.281 3.56001C25.8351 4.68355 27.1997 5.51071 28.4605 5.48659H28.4847C29.2155 5.4728 29.8389 5.98288 29.9636 6.69974C30.1472 7.75436 30.9438 8.59873 31.9897 8.84687L33.8704 9.29491C34.0471 9.33627 34.1579 9.50169 34.1302 9.67746L33.6488 12.8516L36.1078 14.9643C36.2706 15.1056 36.2949 15.3469 36.1563 15.5123L34.7744 17.2148C35.3424 18.7933 35.6818 20.4614 35.7719 22.1812L35.8238 18.8898L37.611 16.6875C38.4041 15.7363 38.2794 14.3612 37.3443 13.5582Z" fill="white"/>
<path d="M32.8625 20.8403C32.4953 20.2958 32.2598 19.6582 32.1767 18.993L32.0832 18.2555L31.3281 18.1796C30.9368 18.1383 29.9427 17.9591 29.1531 17.1491C28.8794 16.87 28.6612 16.546 28.4985 16.1876C28.0932 15.2915 27.068 14.8366 26.1087 15.1295C25.5095 15.3122 24.938 15.3191 24.4046 15.1502C24.1345 15.064 23.8816 14.9331 23.6461 14.7608C23.0192 14.2989 22.1464 14.2679 21.4814 14.6884C21.0728 14.9469 20.4078 15.264 19.5488 15.3156C18.6137 15.3708 17.8552 15.0847 17.3876 14.8366C16.7191 14.4816 15.9156 14.5161 15.2957 14.9296C14.8108 15.2536 14.0176 15.6465 13.0028 15.6844C12.182 15.7189 11.5066 15.5086 11.0806 15.326C10.7343 15.1778 10.3463 15.1881 10.0104 15.357C9.67788 15.5224 9.43891 15.8223 9.35925 16.1807C9.2692 16.5736 9.05446 17.1422 8.52801 17.6248C8.0639 18.0521 7.54438 18.2348 7.1911 18.3106C6.40489 18.4829 5.85766 19.1757 5.88537 19.958C5.90269 20.4681 5.81264 21.2228 5.27926 21.9121C4.83593 22.4842 4.26446 22.7807 3.77957 22.9357L3.90772 19.3549L3.54752 19.0171C3.15614 20.4267 2.96219 21.9156 2.99336 23.4493C3.00375 23.9559 3.03838 24.4591 3.09726 24.9519C3.86616 24.8968 5.59444 24.5969 6.79973 23.0391C7.60326 21.9983 7.79375 20.892 7.79375 20.0855C8.56264 19.8856 9.26227 19.5065 9.83374 18.9827C10.4329 18.4347 10.7897 17.8212 11.0044 17.2836C11.6798 17.4869 12.3863 17.5765 13.0825 17.5489C14.5475 17.4904 15.6801 16.932 16.3693 16.4702C16.404 16.4461 16.449 16.4564 16.4802 16.4736C17.1694 16.839 18.2812 17.2594 19.6666 17.1767C20.9307 17.1009 21.9109 16.6356 22.5136 16.2565C22.9119 16.5495 23.3483 16.77 23.8124 16.9217C24.7198 17.2112 25.7104 17.2077 26.6836 16.9079C26.7148 16.8976 26.7459 16.9113 26.7598 16.9389C27.0126 17.4972 27.3555 18.0004 27.7781 18.4347C28.6474 19.3273 29.6483 19.7271 30.4138 19.9098C30.5835 20.6059 30.8744 21.2711 31.2727 21.8639C31.9931 22.9323 32.9248 23.5802 33.6868 23.9628C33.7076 23.5871 33.7145 23.208 33.7041 22.8255C33.6972 22.4463 33.6729 22.0707 33.6383 21.7019C33.3647 21.471 33.098 21.1884 32.8625 20.8403Z" fill="white"/>
<path d="M2.33541 24.9489L3.29826 24.9558C3.36406 24.9558 3.47143 24.9558 3.61343 24.9455C3.55455 24.4526 3.51992 23.9495 3.50953 23.4428C3.47836 21.9057 3.66885 20.4203 4.05329 19.0107L2.56053 17.5839C2.4878 17.5149 2.42546 17.4391 2.36658 17.3633C2.13106 18.0388 1.93711 18.7281 1.78818 19.4312L2.50512 20.117L2.33541 24.9489Z" fill="white"/>
<path d="M12.1023 30.6706C9.53587 30.6706 7.33656 28.7199 7.06294 26.1661C7.04909 26.0385 7.0387 25.911 7.03524 25.7801C6.95211 23.0022 9.15489 20.669 11.9465 20.5863C14.7415 20.5035 17.0793 22.6955 17.1659 25.4733C17.1694 25.6008 17.1694 25.7352 17.1625 25.8628C17.0447 28.4752 14.887 30.5878 12.2547 30.6671C12.2028 30.6706 12.1543 30.6706 12.1023 30.6706ZM12.1023 22.3715C12.0677 22.3715 12.0365 22.3715 12.0019 22.3715C10.1974 22.4267 8.77737 23.9293 8.82932 25.7249C8.83279 25.8076 8.83625 25.8903 8.84664 25.9731C9.02328 27.6205 10.4433 28.8819 12.0989 28.8819C12.1335 28.8819 12.1647 28.8819 12.1993 28.8819C13.8999 28.8302 15.2887 27.4688 15.3684 25.7835C15.3718 25.6973 15.3718 25.6146 15.3718 25.5319C15.3164 23.7673 13.8618 22.3715 12.1023 22.3715Z" fill="#FFBC00"/>
<path d="M25.3156 30.5241C24.0341 30.5241 22.815 30.0485 21.8729 29.1765C20.8928 28.2735 20.3213 27.0431 20.2589 25.7197C20.2555 25.6921 20.2555 25.6611 20.2555 25.6335C20.2139 24.286 20.7023 23.0074 21.6305 22.0251C22.5587 21.0429 23.8125 20.4811 25.1667 20.4398C27.9583 20.3571 30.303 22.549 30.3862 25.3268L29.4891 25.3544L30.3862 25.3303C30.3862 25.3579 30.3862 25.3854 30.3862 25.413C30.4035 26.7399 29.9082 28.0013 28.9835 28.9628C28.0587 29.9278 26.8118 30.4793 25.4715 30.5206C25.4195 30.5241 25.3676 30.5241 25.3156 30.5241ZM25.3191 22.2285C25.2845 22.2285 25.2533 22.2285 25.2186 22.2285C24.3458 22.256 23.5354 22.6179 22.9362 23.2521C22.337 23.8862 22.0219 24.7134 22.0496 25.5819C22.0496 25.5922 22.0496 25.6025 22.0496 25.6129V25.6335C22.1292 27.3981 23.6393 28.7974 25.4161 28.7388C27.1928 28.6837 28.6163 27.2051 28.5886 25.4371V25.4268V25.4164C28.5886 25.4061 28.5886 25.3992 28.5886 25.3889C28.5332 23.6243 27.0785 22.2285 25.3191 22.2285Z" fill="#FFBC00"/>
<path d="M20.8442 24.512L15.9562 24.6602L16.0104 26.448L20.8984 26.2998L20.8442 24.512Z" fill="#FFBC00"/>
<path d="M35.7753 24.3379C35.7684 24.4585 35.758 24.5757 35.7476 24.6929V24.7411H35.7442C35.7303 24.9065 35.713 25.072 35.6922 25.234C35.6576 25.5338 35.6126 25.8336 35.5606 26.13L33.4063 26.1955L30.3204 26.2886L29.5134 26.3127L29.4857 25.4201L29.4822 25.358L29.4787 25.2753V25.2546L29.4579 24.5309L30.2892 24.5068L33.6557 24.4034L34.6636 24.3723L35.7511 24.3413L35.7753 24.3379Z" fill="#FFBC00"/>
<path d="M7.70734 26.7071L7.15665 26.7244L3.94946 26.8209L1.8021 26.8863C1.73976 26.5934 1.68088 26.297 1.63239 25.9972C1.5839 25.7042 1.54234 25.4044 1.51117 25.108L3.62736 25.0425L7.08392 24.9391L7.65539 24.9219L7.6831 25.8145L7.70734 26.7071Z" fill="#FFBC00"/>
<path d="M19.1097 22.4148L17.9151 29.498L18.2225 29.5494L19.4171 22.4661L19.1097 22.4148Z" fill="white"/>
<path d="M12.5353 27.6303L10.3429 25.4763L12.5353 23.3223H13.9103L11.7075 25.4763L13.9103 27.6303H12.5353Z" fill="white"/>
<path d="M24.235 23.0664H25.61L27.8024 25.2204L25.61 27.3745H24.235L26.4378 25.2204L24.235 23.0664Z" fill="white"/>
</svg>
